<svg width="44" height="44" viewBox="0 0 44 44" fill="none" xmlns="http://www.w3.org/2000/svg">
<g clip-path="url(#clip0_47_3211)">
<path d="M32 0H12C5.37258 0 0 5.37258 0 12V32C0 38.6274 5.37258 44 12 44H32C38.6274 44 44 38.6274 44 32V12C44 5.37258 38.6274 0 32 0Z" fill="#EDF2FA"/>
<path d="M31 14H13C11.8954 14 11 14.8954 11 16V29C11 30.1046 11.8954 31 13 31H31C32.1046 31 33 30.1046 33 29V16C33 14.8954 32.1046 14 31 14Z" stroke="#315FB7" stroke-width="1.8" stroke-linecap="round" stroke-linejoin="round"/>
<path d="M12 15L22 24L32 15" stroke="#315FB7" stroke-width="1.8" stroke-linecap="round" stroke-linejoin="round"/>
</g>
<defs>
<clipPath id="clip0_47_3211">
<rect width="44" height="44" fill="white"/>
</clipPath>
</defs>
</svg>
